<svg xmlns="http://www.w3.org/2000/svg" xmlns:xlink="http://www.w3.org/1999/xlink" version="1.1" x="0px" y="0px" width="134px" height="108.5px" viewBox="0 0 134 108.5" enable-background="new 0 0 134 108.5" xml:space="preserve"><style>.red{fill:#CC0000;}.gold{fill:#FFCC00;}</style><g><path d="M16.12 69.95V65.2h1.77v4.7c0 1.35 0.66 2.05 1.74 2.05c1.08 0 1.74-0.68 1.74-1.99V65.2h1.77v4.69 c0 2.52-1.37 3.75-3.54 3.75C17.44 73.64 16.12 72.4 16.12 69.95z"/><path d="M25.64 65.2h1.64l3.78 5.12V65.2h1.75v8.31H31.3l-3.9-5.28v5.28h-1.75V65.2z"/><path d="M35.52 65.2h1.77v8.31h-1.77V65.2z"/><path d="M39.31 65.2h1.96l2.11 5.85l2.11-5.85h1.91l-3.26 8.37h-1.57L39.31 65.2z"/><path d="M49.33 65.2h6.08v1.63h-4.32v1.69h3.8v1.63h-3.8v1.75h4.38v1.63h-6.14V65.2z"/><path d="M58.2 65.2h3.69c1.02 0 1.82 0.3 2.35 0.84c0.45 0.46 0.69 1.12 0.69 1.9v0.02c0 1.34-0.7 2.19-1.73 2.58l1.97 2.97h-2.07 l-1.73-2.66h-0.02h-1.37v2.66H58.2V65.2z M61.77 69.24c0.86 0 1.36-0.47 1.36-1.17v-0.02c0-0.78-0.53-1.19-1.39-1.19h-1.76v2.39 H61.77z"/><path d="M67.13 72.3l1.05-1.29c0.73 0.62 1.49 1.01 2.41 1.01c0.73 0 1.16-0.3 1.16-0.78v-0.02c0-0.46-0.28-0.7-1.62-1.06 c-1.62-0.43-2.67-0.89-2.67-2.54v-0.02c0-1.51 1.18-2.5 2.82-2.5c1.17 0 2.18 0.38 2.99 1.06l-0.92 1.38 c-0.71-0.51-1.42-0.82-2.1-0.82c-0.68 0-1.04 0.32-1.04 0.72v0.02c0 0.55 0.35 0.72 1.74 1.09c1.63 0.44 2.56 1.04 2.56 2.49v0.02 c0 1.65-1.22 2.58-2.96 2.58C69.33 73.63 68.09 73.19 67.13 72.3z"/><path d="M76.05 65.2h1.77v8.31h-1.77V65.2z"/><path d="M82.41 66.89h-2.45V65.2h6.68v1.69h-2.45v6.62h-1.77V66.89z"/><path d="M91.19 70.23l-3.1-5.03h2.07l1.92 3.34l1.96-3.34h2.02l-3.1 5v3.31h-1.77V70.23z"/><path d="M101.72 69.38v-0.03c0-2.36 1.81-4.3 4.3-4.3c2.49 0 4.27 1.91 4.27 4.28v0.02c0 2.36-1.81 4.3-4.3 4.3 C103.51 73.65 101.72 71.74 101.72 69.38z M108.44 69.38v-0.03c0-1.42-1.01-2.61-2.44-2.61c-1.43 0-2.42 1.16-2.42 2.59v0.02 c0 1.43 1.01 2.61 2.44 2.61C107.45 71.97 108.44 70.81 108.44 69.38z"/><path d="M112.26 65.2h6.14v1.66h-4.37v1.77h3.85v1.66h-3.85v3.22h-1.77V65.2z"/><path d="M22.87 76.83c-4.41 0-7.73 3.45-7.73 8.02v0.04c0 2.17 0.77 4.18 2.17 5.66c1.41 1.49 3.35 2.32 5.45 2.32 c2.49 0 4.24-0.78 6.04-2.7l-1.62-1.69c-1.29 1.24-2.48 2.01-4.34 2.01c-2.84 0-5.06-2.47-5.06-5.63v-0.04 c0-3.19 2.17-5.59 5.06-5.59c1.53 0 2.83 0.59 4.23 1.91l1.62-1.93C27.49 78.03 25.85 76.83 22.87 76.83z"/><path d="M42.59 92.61h2.78l-6.6-15.61h-2.61l-6.6 15.61h2.69l1.56-3.78h7.24L42.59 92.61z M40.14 86.53h-5.41l2.69-6.5L40.14 86.53 z"/><path d="M86.79 92.61h2.78l-6.6-15.61h-2.61l-6.6 15.61h2.69l1.56-3.78h7.24L86.79 92.61z M84.34 86.53h-5.41l2.69-6.5L84.34 86.53 z"/><path d="M47.01 92.61h10.67v-2.37h-7.95V77.1h-2.72V92.61z"/><path d="M65.84 76.83c-4.34 0-7.89 3.52-7.89 8.02v0.04c0 4.7 3.36 7.97 7.93 7.97c2.9 0 4.99-1.3 6.49-2.4v-6.47h-6.21v2.25h3.53 v3.03l-0.03 0.02c-0.99 0.76-2.34 1.2-3.69 1.2c-3.07 0-5.21-2.33-5.21-5.66v-0.04c0-3.08 2.23-5.59 4.97-5.59 c1.93 0 3.09 0.66 4.23 1.65l1.6-1.97C69.86 77.43 68.2 76.83 65.84 76.83z"/><path d="M101.17 92.61h2.97l-4.06-5.89l0.09-0.03c2.3-0.68 3.83-2.34 3.83-4.67v-0.05c0-1.32-0.7-2.47-1.5-3.33 c-1-1.01-2.49-1.54-4.32-1.54h-6.85v15.5h2.7v-5.45h3.43L101.17 92.61z M97.98 84.86h-3.96v-5.39h3.94c2.03 0 3.2 0.97 3.2 2.66 v0.05C101.16 83.8 99.91 84.86 97.98 84.86z"/><path d="M110.01 92.61h2.9v-5.96l5.95-9.54h-2.99l-4.32 6.99l-4.27-6.99h-3.05l5.78 9.54V92.61z"/><path d="M67.25 15.63c-12.29 0-17.38 4.12-17.38 4.12v18.49c0 10.24 13.54 20.86 17.38 21.92c3.84-1.06 17.38-11.68 17.38-21.92 V19.75C84.63 19.75 79.54 15.63 67.25 15.63z"/><path d="M67.26 44.95" class="gold"/><path d="M79.02 36.42L75.4 42.4C76.76 41.78 78.81 40.22 79.02 36.42z" class="gold"/><path d="M59.12 42.4l-3.62-5.98C55.71 40.22 57.75 41.78 59.12 42.4z" class="gold"/><path d="M65.12 38.52c0.08 0.1 0.13 0.22 0.13 0.36c0 0.33-0.28 0.6-0.61 0.6c-0.34 0-0.62-0.27-0.62-0.6 c0-0.18 0.08-0.33 0.21-0.44c-0.48-0.09-0.99-0.34-0.99-0.34c0.11 0.35 0.37 1.69 1.25 1.79c1.09 0.12 1.37-0.89 1.37-0.89 S65.68 38.67 65.12 38.52z" class="gold"/><path d="M70.32 38.43c0.13 0.11 0.21 0.26 0.21 0.44c0 0.33-0.28 0.6-0.62 0.6c-0.34 0-0.61-0.27-0.61-0.6 c0-0.14 0.06-0.26 0.13-0.36C68.88 38.67 68.7 39 68.7 39s0.28 1.01 1.37 0.89c0.88-0.09 1.14-1.44 1.25-1.79 C71.31 38.1 70.81 38.34 70.32 38.43z" class="gold"/><path d="M71.35 35.32c-0.36-0.29-0.82 0.07-0.47 0.47c0.29 0.33 0.49 0.55 0.36 0.79 c-0.17 0.33-1.83 0.25-3.96 1.05c-2.13-0.8-3.79-0.72-3.96-1.05c-0.13-0.24 0.07-0.46 0.36-0.79c0.35-0.4-0.11-0.77-0.47-0.47 c-0.3 0.25-0.85 1-0.65 1.51c0.31 0.81 2.2 0.56 4.72 1.6v0c0 0 0 0 0.01 0c0 0 0 0 0.01 0v0c2.51-1.04 4.41-0.79 4.72-1.6 C72.2 36.32 71.65 35.56 71.35 35.32z" class="gold"/><path d="M69.11 45.88c-0.33-0.13-0.91-0.47-1.07-1.06c-0.15-0.54 0.06-0.91 0.3-0.97c0.23-0.06 0.48 0.1 0.38 0.38 c-0.07 0.21-0.3 0.32-0.38 0.37c-0.14 0.08-0.02 0.26 0.15 0.23c0.38-0.08 0.6-0.49 0.59-0.79c-0.02-0.46-0.54-0.57-0.83-0.51 c-0.45 0.09-0.77 0.53-0.59 1.3c0.18 0.73 0.82 1.12 1.16 1.27c-0.29 0.12-0.93 0.22-1.54 0.26c-0.61-0.04-1.25-0.14-1.54-0.26 c0.34-0.15 0.98-0.55 1.16-1.27c0.19-0.77-0.14-1.21-0.59-1.3c-0.29-0.06-0.81 0.05-0.83 0.51c-0.01 0.3 0.21 0.71 0.59 0.79 c0.17 0.03 0.29-0.15 0.16-0.23c-0.08-0.05-0.31-0.16-0.38-0.37c-0.1-0.28 0.15-0.43 0.38-0.38c0.24 0.06 0.45 0.43 0.3 0.97 c-0.17 0.59-0.75 0.93-1.07 1.06c-0.28 0.11-0.32 0.39-0.14 0.49c0.57 0.33 1.42 0.4 1.94 0.41v0c0.01 0 0.03 0 0.04 0 c0.01 0 0.03 0 0.04 0v0c0.52-0.01 1.36-0.08 1.94-0.41C69.43 46.27 69.39 45.99 69.11 45.88z" class="gold"/><path d="M67.29 21.48c0.15-0.02 0.33-0.07 0.48-0.17l0 0c0.02-0.02 0.04-0.04 0.07-0.05 c0.17-0.15 0.5-0.61 0.6-0.81c0.02-0.04 0.02-0.08 0-0.13c-0.04-0.1-0.15-0.2-0.19-0.21c-0.15-0.05-1.77-0.05-1.93 0l0 0 c0 0-0.01 0-0.03 0.01c-0.07 0.05-0.21 0.2-0.16 0.31c0.09 0.19 0.45 0.67 0.62 0.82C66.91 21.39 67.11 21.45 67.29 21.48z" class="gold"/><path d="M66.05 22.26c0.02-0.15 0.03-0.32-0.02-0.49l0 0c-0.01-0.03-0.02-0.05-0.03-0.08 c-0.1-0.2-0.45-0.63-0.62-0.79c-0.03-0.03-0.08-0.04-0.13-0.04c-0.12 0.01-0.24 0.08-0.26 0.11c-0.09 0.12-0.6 1.61-0.6 1.76l0 0 c0 0 0 0.01 0.01 0.03c0.03 0.08 0.13 0.26 0.26 0.24c0.21-0.02 0.8-0.21 1-0.32C65.84 22.59 65.96 22.42 66.05 22.26z" class="gold"/><path d="M66.42 23.64c-0.14-0.06-0.31-0.13-0.49-0.13l0 0c-0.03 0-0.06 0-0.09 0.01c-0.23 0.03-0.77 0.23-0.98 0.34 c-0.04 0.02-0.06 0.05-0.08 0.1c-0.03 0.11 0 0.25 0.02 0.27c0.1 0.12 1.4 1.05 1.56 1.1l0 0c0 0 0 0 0.03 0 c0.09 0 0.3-0.04 0.33-0.17c0.04-0.2 0.04-0.81-0.01-1.03C66.69 23.93 66.55 23.77 66.42 23.64z" class="gold"/><path d="M67.91 23.72c-0.11 0.11-0.23 0.24-0.28 0.41l0 0c-0.01 0.03-0.02 0.05-0.02 0.08 c-0.04 0.22-0.01 0.79 0.02 1.01c0.01 0.04 0.04 0.07 0.08 0.11c0.1 0.06 0.25 0.07 0.28 0.06c0.16-0.04 1.47-0.96 1.56-1.09l0 0 c0 0 0.01 0 0.01-0.02c0.03-0.08 0.05-0.29-0.06-0.35c-0.19-0.1-0.78-0.3-1.01-0.33C68.27 23.57 68.08 23.64 67.91 23.72z" class="gold"/><path d="M68.44 22.39c0.08 0.13 0.17 0.28 0.32 0.38l0 0c0.02 0.01 0.04 0.03 0.08 0.04c0.2 0.11 0.77 0.27 1 0.3 c0.04 0.01 0.08-0.01 0.13-0.04c0.09-0.07 0.15-0.2 0.15-0.23c0-0.15-0.5-1.64-0.59-1.77l0 0c0 0-0.01-0.01-0.02-0.02 C69.42 21 69.22 20.92 69.14 21c-0.16 0.14-0.53 0.62-0.63 0.82C68.41 22 68.42 22.21 68.44 22.39z" class="gold"/><path d="M68.19 22.51c-0.04-0.08-0.11-0.14-0.18-0.19c0.01-0.06 0.02-0.11 0-0.17c-0.02-0.14-0.1-0.25-0.21-0.34 c-0.19-0.13-0.46-0.11-0.64 0.02c-0.18-0.08-0.4-0.08-0.57 0.03c-0.11 0.08-0.19 0.2-0.21 0.34c-0.02 0.09 0 0.17 0.03 0.25 c-0.04 0.04-0.08 0.08-0.11 0.13c-0.07 0.13-0.08 0.27-0.03 0.4c0.07 0.22 0.28 0.36 0.51 0.36c0.01 0 0.01 0 0.02 0 c0.09 0.17 0.26 0.29 0.48 0.29c0.24 0 0.44-0.16 0.51-0.37c0.2-0.03 0.37-0.16 0.43-0.35C68.26 22.77 68.25 22.63 68.19 22.51z M66.81 23.09c-0.1 0.03-0.2-0.02-0.23-0.11c-0.03-0.09 0.02-0.19 0.11-0.22c0.1-0.03 0.2 0.02 0.23 0.11 C66.96 22.96 66.9 23.06 66.81 23.09z M66.91 22.47c-0.08 0.06-0.2 0.04-0.25-0.04c-0.06-0.08-0.04-0.19 0.04-0.24 c0.08-0.06 0.19-0.04 0.25 0.04C67.01 22.3 66.99 22.41 66.91 22.47z M67.33 23.33c-0.1 0-0.18-0.08-0.18-0.17 c0-0.09 0.08-0.17 0.18-0.17c0.1 0 0.18 0.08 0.18 0.17C67.51 23.25 67.43 23.33 67.33 23.33z M67.31 22.33 c-0.08-0.05-0.1-0.16-0.04-0.24c0.06-0.08 0.17-0.09 0.25-0.04c0.08 0.06 0.09 0.17 0.04 0.24C67.5 22.37 67.38 22.38 67.31 22.33z M67.68 22.86c-0.1-0.02-0.15-0.13-0.12-0.22c0.03-0.09 0.13-0.14 0.23-0.11c0.09 0.03 0.15 0.13 0.11 0.22 C67.88 22.84 67.77 22.89 67.68 22.86z" class="gold"/><path d="M57.66 20.65c-0.5-0.47-0.78-0.57-0.93-0.57c-0.08 0-0.19 0.03-0.36 0.21c-0.04 0.04-0.09 0.09-0.13 0.14 c-0.24 0.27-0.53 0.62-1.05 0.62c-0.19 0-0.39-0.05-0.61-0.16v3.95c0.2 0.34 0.4 0.54 0.57 0.54c0.09 0 0.25-0.05 0.5-0.32 c0.58-0.62 1.29-0.74 2-0.32V20.65z" class="gold"/><path d="M60.8 21.05c-0.51 0-0.81-0.35-1.05-0.62c-0.04-0.05-0.09-0.1-0.13-0.14c-0.17-0.18-0.28-0.21-0.36-0.21 c-0.15 0-0.43 0.1-0.92 0.57v4.1c0.28-0.17 0.56-0.25 0.84-0.25c0.42 0 0.81 0.19 1.17 0.57c0.24 0.27 0.41 0.32 0.5 0.32 c0.17 0 0.37-0.2 0.57-0.54v-3.95C61.2 21 60.99 21.05 60.8 21.05" class="gold"/><path d="M76.86 24.75c0.72-0.42 1.42-0.3 2 0.32c0.25 0.27 0.41 0.32 0.5 0.32c0.17 0 0.37-0.2 0.57-0.54v-3.95 c-0.22 0.1-0.42 0.16-0.61 0.16c-0.52 0-0.81-0.35-1.05-0.62c-0.04-0.05-0.08-0.1-0.13-0.14c-0.17-0.18-0.27-0.21-0.36-0.21 c-0.15 0-0.43 0.1-0.93 0.57V24.75z" class="gold"/><path d="M73.71 21.05c-0.19 0-0.39-0.05-0.61-0.16v3.95c0.2 0.34 0.4 0.54 0.57 0.54c0.09 0 0.25-0.05 0.5-0.32 c0.36-0.38 0.75-0.57 1.17-0.57c0.28 0 0.56 0.08 0.84 0.25v-4.1c-0.5-0.47-0.78-0.57-0.92-0.57c-0.08 0-0.19 0.03-0.36 0.21 c-0.04 0.04-0.08 0.09-0.13 0.14C74.53 20.7 74.23 21.05 73.71 21.05" class="gold"/><path d="M63.2 33.08c-1.27-0.44-3.88-1.73-4.98-4.79c-0.28-0.79-0.7-0.67-0.62 0.17c0.2 2.2 1.6 4.88 4.53 6.1 C63.4 35.08 64.1 33.39 63.2 33.08z" class="gold"/><path d="M71.35 33.08c1.27-0.44 3.88-1.73 4.98-4.79c0.28-0.79 0.7-0.67 0.62 0.17c-0.2 2.2-1.6 4.88-4.53 6.1 C71.16 35.08 70.45 33.39 71.35 33.08z" class="gold"/><path d="M70.56 32.46c0.17-0.04 0.42-0.1 0.71-0.19c0.79-0.3 2.18-1 3.26-2.42c-2.47-0.48-4.98-0.74-7.23-0.74 c-2.27 0-4.8 0.27-7.28 0.76c1.12 1.47 2.59 2.17 3.35 2.45c0.24 0.07 0.45 0.12 0.6 0.16c0.35 0.08 0.71 0.13 1.15-0.24 c0.44-0.37 0.52-0.59 2.15-0.59c1.62 0 1.7 0.22 2.15 0.59C69.85 32.59 70.2 32.53 70.56 32.46z" class="gold"/><path d="M77.31 30.49c-0.5 1.37-1.41 2.78-2.84 3.84c1.14 0.36 2.57 0.37 3.55-0.28c-0.33 0.85-1.37 1.96-2.12 2.68 c-0.14-0.09-0.27-0.21-0.37-0.32c-0.3-0.32-0.58-0.04-0.37 0.23c0.07 0.09 0.26 0.36 0.36 0.44c-0.22 0.21-0.39 0.35-0.44 0.39 c-0.15-0.09-0.31-0.23-0.42-0.35c-0.3-0.32-0.58-0.04-0.37 0.23c0.07 0.09 0.27 0.37 0.37 0.45c-0.18 0.15-0.39 0.31-0.57 0.43 c-0.38-0.48-0.78-0.98-1.4-0.67c-0.65 0.33 0 0.77 0 1.42c0 2.59-1.63 3.56-2.03 4.66c-0.41 1.1-0.79 3.06-1.11 3.6 c-0.32 0.53-1.67 1.12-2.3 0.63c-0.62 0.49-1.99-0.1-2.3-0.63c-0.31-0.54-0.74-2.5-1.15-3.6c-0.4-1.1-2-2.06-2-4.66 c0-0.65 0.64-1.09 0-1.42c-0.61-0.31-1.02 0.19-1.4 0.67c-0.18-0.12-0.38-0.28-0.57-0.43c0.11-0.08 0.3-0.36 0.37-0.45 c0.21-0.27-0.07-0.55-0.37-0.23c-0.11 0.12-0.27 0.26-0.42 0.35c-0.05-0.04-0.21-0.19-0.44-0.39c0.11-0.09 0.29-0.35 0.36-0.44 c0.21-0.27-0.07-0.55-0.37-0.23c-0.1 0.11-0.24 0.22-0.37 0.32c-0.75-0.73-1.79-1.83-2.12-2.68c1.02 0.67 2.34 0.64 3.49 0.24 c-1.39-1.05-2.28-2.44-2.78-3.78c-2.2 0.61-4.27 1.39-5.95 2.34v5.52c0 8.92 12.75 19.23 16.02 20.15 c3.27-0.92 15.94-11.23 15.94-20.15V32.8C81.56 31.87 79.5 31.09 77.31 30.49z M78.07 46.99c-0.7 0.56-1.24 0.94-1.68 1.25 c-0.96 0.67-1.33 0.97-1.29 1.47l0.17 2.15l-1.26-0.58c-0.99-0.44-1.45-1.04-1.54-2c-0.13-1.49 0.79-3.04 2.46-4.16 c0.4-0.26 0.75-0.45 1.04-0.59c0.28-0.14 0.54-0.3 0.57-0.37c0.06-0.17-0.26-0.44-1.18-0.85c-0.09-0.04-0.27-0.11-0.42-0.18 l-7.69 12.69l-7.69-12.69c-0.16 0.07-0.33 0.14-0.42 0.18c-0.92 0.41-1.24 0.68-1.18 0.85c0.02 0.08 0.29 0.23 0.57 0.37 c0.29 0.14 0.64 0.33 1.04 0.59c1.68 1.12 2.6 2.67 2.46 4.16c-0.09 0.96-0.55 1.56-1.54 2l-1.26 0.58l0.17-2.15 c0.04-0.5-0.33-0.8-1.29-1.47c-0.44-0.31-0.98-0.69-1.68-1.25c-4.3-3.46-4.44-7.82-3.19-9.67c0.42-0.61 1.6-1.94 1.61-1.94 l-0.2-0.31c-0.43-0.04-0.77-0.4-0.77-0.85c0-0.47 0.38-0.86 0.85-0.86s0.85 0.38 0.85 0.86c0 0.09-0.02 0.18-0.04 0.26 c0.01 0.01 0.02 0.01 0.02 0.03l11.68 19.56l11.68-19.56c0-0.02 0.01-0.02 0.02-0.03c-0.03-0.08-0.04-0.17-0.04-0.26 c0-0.47 0.38-0.86 0.86-0.86c0.47 0 0.85 0.38 0.85 0.86c0 0.44-0.34 0.8-0.77 0.85l-0.2 0.31c0.01 0.01 1.19 1.33 1.61 1.94 C82.52 39.17 82.38 43.53 78.07 46.99z" class="gold"/><path d="M67.24 16.95c-11.8 0-15.98 3.61-15.98 3.61v10.62c1.6-0.82 3.52-1.5 5.57-2.04 c-0.04-0.21-0.07-0.42-0.09-0.62c-0.05-0.57 0.05-1 0.32-1.29c0.19-0.21 0.45-0.33 0.73-0.33c0.3 0 0.86 0.14 1.21 1.09 c0.08 0.21 0.16 0.41 0.25 0.6c2.73-0.55 5.5-0.84 7.99-0.84c2.48 0 5.3 0.29 8.02 0.84c0.09-0.19 0.17-0.39 0.25-0.6 c0.34-0.95 0.9-1.09 1.21-1.09c0.28 0 0.54 0.12 0.73 0.33c0.26 0.29 0.37 0.73 0.32 1.29c-0.02 0.2-0.05 0.41-0.09 0.62 c2.04 0.54 3.95 1.22 5.55 2.03V20.56C83.23 20.56 79.04 16.95 67.24 16.95z M62.38 26.28l-1.61-0.24c-0.03 0-0.05-0.01-0.08-0.01 l-2.12-0.32v0.36H58h-0.57V25.7l-3.81 0.81v-5.86l0.29-0.08v-0.94l0.55 0.4c0.39 0.29 0.62 0.35 0.74 0.35 c0.18 0 0.33-0.14 0.53-0.38c0.05-0.05 0.1-0.11 0.14-0.16c0.27-0.28 0.54-0.42 0.86-0.42c0.37 0 0.77 0.21 1.27 0.64 c0.49-0.43 0.9-0.64 1.27-0.64c0.32 0 0.59 0.14 0.86 0.42c0.05 0.05 0.09 0.11 0.14 0.16c0.21 0.24 0.34 0.38 0.53 0.38 c0.13 0 0.36-0.06 0.74-0.35l0.55-0.4v0.94l0.29 0.08V26.28z M70.91 23.79c-0.06 0.17-0.28 0.26-0.55 0.26 c0 0.16-0.04 0.31-0.08 0.38c-0.16 0.21-1.94 1.45-2.2 1.53c-0.03 0.01-0.06 0.01-0.1 0.01c-0.08 0-0.17-0.01-0.27-0.04 c-0.08 0.27-0.25 0.46-0.44 0.46c-0.18 0-0.35-0.18-0.43-0.45c-0.11 0.04-0.22 0.06-0.32 0.06c-0.04 0-0.08 0-0.11-0.01 c-0.25-0.08-2.03-1.33-2.18-1.55c-0.04-0.06-0.08-0.19-0.09-0.33c-0.28 0-0.51-0.09-0.56-0.26c-0.06-0.17 0.07-0.37 0.29-0.53 c-0.12-0.13-0.19-0.31-0.19-0.39c0-0.26 0.68-2.28 0.85-2.48c0.04-0.05 0.17-0.14 0.32-0.19c-0.08-0.25-0.06-0.47 0.09-0.58 c0.14-0.1 0.37-0.06 0.58 0.09c0.1-0.15 0.25-0.27 0.33-0.29c0.17-0.05 0.9-0.06 1.22-0.06c0.48 0 1.34 0.02 1.5 0.07 c0.08 0.03 0.2 0.13 0.3 0.26c0.23-0.16 0.46-0.21 0.61-0.1c0.14 0.1 0.17 0.31 0.1 0.55c0.17 0.05 0.31 0.14 0.35 0.2 c0.16 0.2 0.84 2.23 0.83 2.49c0 0.07-0.06 0.22-0.16 0.35C70.83 23.42 70.97 23.62 70.91 23.79z M80.9 26.51l-3.81-0.81v0.36 h-0.57h-0.57V25.7l-2.12 0.32c-0.03 0-0.05 0.01-0.08 0.01l-1.61 0.24v-5.62l0.28-0.08v-0.94l0.55 0.4 c0.39 0.29 0.62 0.35 0.74 0.35c0.19 0 0.32-0.14 0.53-0.38c0.05-0.05 0.1-0.11 0.14-0.16c0.27-0.28 0.55-0.42 0.86-0.42 c0.37 0 0.78 0.21 1.27 0.64c0.49-0.43 0.89-0.64 1.27-0.64c0.32 0 0.59 0.14 0.86 0.42c0.05 0.05 0.1 0.11 0.14 0.16 c0.2 0.24 0.35 0.38 0.53 0.38c0.12 0 0.36-0.06 0.74-0.35l0.55-0.4v0.94l0.29 0.08V26.51z" class="red"/><path d="M76.4 42.88c0.53 0.29 1.07 0.71 1.07 1.29c0 0.61-0.51 0.87-1.06 1.15c-0.28 0.14-0.59 0.3-0.95 0.54 c-0.53 0.35-2.23 1.62-2.07 3.35c0.06 0.6 0.28 0.92 0.88 1.22l-0.08-0.78c-0.04-0.77 0.66-1.42 1.66-2.12 c0.43-0.3 0.96-0.68 1.63-1.22c3.71-2.98 4.12-6.85 3-8.51c-0.15-0.22-0.37-0.53-0.59-0.84C79.57 40.34 77.85 42.03 76.4 42.88z" class="red"/><path d="M54.62 36.96c-0.22 0.31-0.44 0.62-0.59 0.84c-1.12 1.66-0.7 5.53 3 8.51c0.68 0.54 1.21 0.91 1.63 1.22 c1 0.7 1.69 1.35 1.66 2.12l-0.08 0.78c0.6-0.29 0.83-0.61 0.88-1.22c0.15-1.73-1.54-3-2.07-3.35c-0.35-0.24-0.67-0.4-0.95-0.54 c-0.55-0.28-1.06-0.54-1.06-1.15c0-0.58 0.55-1 1.07-1.29C56.67 42.03 54.95 40.34 54.62 36.96z" class="red"/></g></svg>