<?xml version="1.0" encoding="utf-8"?>
<!-- Generator: Adobe Illustrator 16.0.0, SVG Export Plug-In . SVG Version: 6.00 Build 0)  -->
<!DOCTYPE svg PUBLIC "-//W3C//DTD SVG 1.1//EN" "http://www.w3.org/Graphics/SVG/1.1/DTD/svg11.dtd">
<svg version="1.1" id="Layer_1" xmlns="http://www.w3.org/2000/svg" xmlns:xlink="http://www.w3.org/1999/xlink" x="0px" y="0px"
	 width="132px" height="401px" viewBox="0 0 132 401" enable-background="new 0 0 132 401" xml:space="preserve">
<g>
	<line fill="none" stroke="#F47521" stroke-miterlimit="10" x1="37.46" y1="125.011" x2="95.045" y2="125.011"/>
	<line fill="none" stroke="#F47521" stroke-miterlimit="10" x1="38.062" y1="125.104" x2="38.062" y2="142.179"/>
	<line fill="none" stroke="#F47521" stroke-miterlimit="10" x1="37.46" y1="141.8" x2="47.634" y2="141.8"/>
	<line fill="none" stroke="#F47521" stroke-miterlimit="10" x1="47.053" y1="141.8" x2="19.645" y2="229.865"/>
	<line fill="none" stroke="#F47521" stroke-miterlimit="10" x1="19.645" y1="229.361" x2="9.357" y2="229.361"/>
	<line fill="none" stroke="#F47521" stroke-miterlimit="10" x1="9.357" y1="228.713" x2="9.357" y2="247.492"/>
	<line fill="none" stroke="#F47521" stroke-miterlimit="10" x1="9.357" y1="247.062" x2="51.081" y2="247.062"/>
	<line fill="none" stroke="#F47521" stroke-miterlimit="10" x1="51.081" y1="247.492" x2="51.081" y2="228.713"/>
	<line fill="none" stroke="#F47521" stroke-miterlimit="10" x1="51.081" y1="229.361" x2="40.724" y2="229.361"/>
	<line fill="none" stroke="#F47521" stroke-miterlimit="10" x1="40.724" y1="229.865" x2="47.053" y2="208.206"/>
	<line fill="none" stroke="#F47521" stroke-miterlimit="10" x1="47.053" y1="208.637" x2="86.135" y2="208.637"/>
	<line fill="none" stroke="#F47521" stroke-miterlimit="10" x1="85.835" y1="208.206" x2="92.099" y2="229.361"/>
	<line fill="none" stroke="#F47521" stroke-miterlimit="10" x1="92.528" y1="229.361" x2="82.456" y2="229.361"/>
	<line fill="none" stroke="#F47521" stroke-miterlimit="10" x1="82.456" y1="228.713" x2="82.456" y2="247.424"/>
	<line fill="none" stroke="#F47521" stroke-miterlimit="10" x1="81.875" y1="247.424" x2="123.609" y2="247.424"/>
	<line fill="none" stroke="#F47521" stroke-miterlimit="10" x1="123.609" y1="247.924" x2="123.609" y2="229.504"/>
	<line fill="none" stroke="#F47521" stroke-miterlimit="10" x1="123.609" y1="230.004" x2="113.317" y2="230.004"/>
	<line fill="none" stroke="#F47521" stroke-miterlimit="10" x1="113.827" y1="230.436" x2="85.412" y2="141.581"/>
	<line fill="none" stroke="#F47521" stroke-miterlimit="10" x1="84.902" y1="141.581" x2="94.545" y2="141.581"/>
	<line fill="none" stroke="#F47521" stroke-miterlimit="10" x1="94.545" y1="142.016" x2="94.545" y2="125.011"/>
	<line fill="none" stroke="#F47521" stroke-miterlimit="10" x1="66.41" y1="143.31" x2="52.235" y2="190.215"/>
	<line fill="none" stroke="#F47521" stroke-miterlimit="10" x1="51.662" y1="190.215" x2="81.523" y2="190.215"/>
	<line fill="none" stroke="#F47521" stroke-miterlimit="10" x1="81.014" y1="190.215" x2="66.41" y2="143.31"/>
</g>
</svg>
