<?xml version="1.0" encoding="utf-8"?>
<!-- Generator: Adobe Illustrator 16.0.0, SVG Export Plug-In . SVG Version: 6.00 Build 0)  -->
<!DOCTYPE svg PUBLIC "-//W3C//DTD SVG 1.1//EN" "http://www.w3.org/Graphics/SVG/1.1/DTD/svg11.dtd">
<svg version="1.1" id="Layer_1" xmlns="http://www.w3.org/2000/svg" xmlns:xlink="http://www.w3.org/1999/xlink" x="0px" y="0px"
	 width="246px" height="264.832px" viewBox="0 0 246 264.832" enable-background="new 0 0 246 264.832" xml:space="preserve">
<g>
	<path fill="#F28726" stroke="#000000" stroke-width="4" stroke-miterlimit="10" d="M88.478,224.878v32.019
		c-26.244,0-52.449,0-79.089,0c0-10.092,0-20.074,0-30.953c6.441,0,12.789,0,19.586,0c19.779-62.168,39.345-123.661,59.17-185.972
		c-6.803,0-12.825,0-19.237,0c0-10.272,0-19.908,0-29.995c36.321,0,72.65,0,109.45,0c0,9.625,0,19.257,0,29.661
		c-6.041,0-12.222,0-19.346,0c19.897,62.494,39.486,124.013,59.222,185.991c6.583,0,12.832,0,19.604,0c0,10.731,0,20.851,0,31.349
		c-26.275,0-52.346,0-78.955,0c0-10.358,0-20.668,0-31.85c6.539,0,13.062,0,20.382,0c-4.644-16.512-9-32.009-13.395-47.636
		c-28.266,0-55.996,0-84.415,0c-4.37,15.411-8.763,30.913-13.437,47.403L88.478,224.878z M156.547,144.531L124.189,44.068
		L90.742,144.531H156.547z"/>
</g>
</svg>
